<svg width="695" height="172" viewBox="0 0 695 172" fill="none" xmlns="http://www.w3.org/2000/svg">
<path fill-rule="evenodd" clip-rule="evenodd" d="M157.469 149L158.234 148H159.494H679C687.837 148 695 140.837 695 132V16C695 7.16344 687.837 0 679 0H16C7.16344 0 0 7.16344 0 16V132C0 140.837 7.16345 148 16 148H121H122.25L122.999 149L138.806 170.088L140.053 171.75L141.315 170.1L157.469 149ZM140.069 168.438L156.646 146.784L157.247 146H158.234H679C686.732 146 693 139.732 693 132V16C693 8.26801 686.732 2 679 2H16C8.26801 2 2 8.26801 2 16V132C2 139.732 8.26802 146 16 146H122.25H123.25L123.85 146.8L124 147H124V147.001L140.069 168.438Z" fill="#7879F1"/>
</svg>
